<?xml version="1.0" encoding="UTF-8" standalone="no"?><!DOCTYPE svg PUBLIC "-//W3C//DTD SVG 1.1//EN" "http://www.w3.org/Graphics/SVG/1.1/DTD/svg11.dtd"><svg width="100%" height="100%" viewBox="0 0 239 92" version="1.1" xmlns="http://www.w3.org/2000/svg" xmlns:xlink="http://www.w3.org/1999/xlink" xml:space="preserve" xmlns:serif="http://www.serif.com/" style="fill-rule:evenodd;clip-rule:evenodd;stroke-linejoin:round;stroke-miterlimit:2;"><path d="M45.926,0c25.348,0 45.927,20.579 45.927,45.926c0,25.348 -20.579,45.927 -45.927,45.927c-25.347,0 -45.926,-20.579 -45.926,-45.927c-0,-25.347 20.579,-45.926 45.926,-45.926Zm-0,13.001c18.172,-0 32.925,14.753 32.925,32.925c0,18.172 -14.753,32.925 -32.925,32.925c-18.172,0 -32.925,-14.753 -32.925,-32.925c-0,-18.172 14.753,-32.925 32.925,-32.925Z" style="fill:url(#_Linear1);"/><path d="M45.926,22.595c12.877,0 23.331,10.455 23.331,23.331c0,12.877 -10.454,23.331 -23.331,23.331c-12.876,0 -23.331,-10.454 -23.331,-23.331c-0,-12.876 10.455,-23.331 23.331,-23.331Zm-0,13.006c5.699,0 10.325,4.627 10.325,10.325c-0,5.699 -4.626,10.325 -10.325,10.325c-5.698,0 -10.325,-4.626 -10.325,-10.325c-0,-5.698 4.627,-10.325 10.325,-10.325Z" style="fill:url(#_Linear2);"/><text x="98.316px" y="71.95px" style="font-family:'Olga-Regular', 'Olga';font-size:74.997px;fill:#fff;">Hub</text><defs><linearGradient id="_Linear1" x1="0" y1="0" x2="1" y2="0" gradientUnits="userSpaceOnUse" gradientTransform="matrix(91.8525,91.8525,-91.8525,91.8525,-7.10543e-15,0)"><stop offset="0" style="stop-color:#16bf53;stop-opacity:1"/><stop offset="0.29" style="stop-color:#129a43;stop-opacity:1"/><stop offset="0.4" style="stop-color:#094b21;stop-opacity:1"/><stop offset="0.5" style="stop-color:#000;stop-opacity:1"/><stop offset="0.6" style="stop-color:#510808;stop-opacity:1"/><stop offset="0.71" style="stop-color:#a51111;stop-opacity:1"/><stop offset="1" style="stop-color:#cd1515;stop-opacity:1"/></linearGradient><linearGradient id="_Linear2" x1="0" y1="0" x2="1" y2="0" gradientUnits="userSpaceOnUse" gradientTransform="matrix(-46.662,-46.662,46.662,-46.662,69.257,69.257)"><stop offset="0" style="stop-color:#01ff00;stop-opacity:1"/><stop offset="0.5" style="stop-color:#000;stop-opacity:1"/><stop offset="1" style="stop-color:#ec2b2b;stop-opacity:1"/></linearGradient></defs></svg>